<?xml version="1.0" encoding="UTF-8"?>
<svg version="1.1" xmlns="http://www.w3.org/2000/svg" width="500" height="500">
<path d="M0 0 C0.98822754 0.23525391 1.97645508 0.47050781 2.99462891 0.71289062 C9.08695268 2.21860197 15.05437072 3.99541795 21 6 C22.21236328 6.40605469 22.21236328 6.40605469 23.44921875 6.8203125 C38.39453701 11.90504717 52.72115583 18.18044031 66.2421875 26.359375 C68.94980245 27.97013744 71.70369224 29.42506264 74.5 30.875 C80.81530617 34.2874493 86.35774191 38.58736505 92 43 C92.75925781 43.57621094 93.51851563 44.15242188 94.30078125 44.74609375 C110.8296608 57.34672039 126.36898522 71.42739196 139 88 C139.96344219 89.23445265 140.92699134 90.46882181 141.890625 91.703125 C148.21020839 99.88270281 153.8143383 108.26069863 158.95361328 117.22460938 C160.08769747 119.14879514 161.28420925 121.0251471 162.48828125 122.90625 C175.61414987 143.81533481 183.91456615 168.98828302 189 193 C189.21027832 193.98162109 189.42055664 194.96324219 189.63720703 195.97460938 C199.90815065 246.62182779 193.70477894 303.54353589 171 350 C170.15888672 351.77503906 170.15888672 351.77503906 169.30078125 353.5859375 C159.00442279 375.02529747 145.80175398 395.27123931 129.3671875 412.515625 C127.38077937 414.60037017 125.5258046 416.72421785 123.6875 418.9375 C114.72857764 429.22208628 104.0359598 438.0478915 93 446 C92.38930664 446.44053711 91.77861328 446.88107422 91.14941406 447.33496094 C36.43236275 486.49002711 -30.00869444 503.02159593 -96.75683594 492.98193359 C-115.63867878 489.74093931 -134.29525194 484.31374711 -152 477 C-153.0209375 476.60425781 -154.041875 476.20851563 -155.09375 475.80078125 C-163.4135136 472.50571698 -171.18857144 468.33394411 -179 464 C-179.99773437 463.45601563 -180.99546875 462.91203125 -182.0234375 462.3515625 C-190.43028036 457.62991103 -198.22200709 452.06583338 -206.02197266 446.41699219 C-207.35931057 445.45896833 -208.7084384 444.51722474 -210.06787109 443.59082031 C-211.74500883 442.44071079 -213.37745428 441.22592344 -215 440 C-215 439.34 -215 438.68 -215 438 C-215.55042969 437.76796875 -216.10085937 437.5359375 -216.66796875 437.296875 C-219.63314832 435.64789742 -221.83313575 433.56454088 -224.3125 431.25 C-227.40002989 428.38271528 -230.49204063 425.54933399 -233.75 422.875 C-237.59352803 419.60256222 -240.75234339 415.85142838 -244 412 C-245.22009766 410.61167969 -245.22009766 410.61167969 -246.46484375 409.1953125 C-265.23769405 387.70881054 -280.63356016 362.60123786 -291 336 C-291.24169922 335.38044434 -291.48339844 334.76088867 -291.73242188 334.12255859 C-314.69460135 274.43580247 -313.53097088 204.6768742 -288 146 C-285.8412522 141.24520865 -283.49364929 136.60119668 -281.04736328 131.98876953 C-279.93521575 129.87698544 -278.85499924 127.75066828 -277.77734375 125.62109375 C-274.01359187 118.24987315 -270.12765911 111.31289467 -265.078125 104.72265625 C-263.15502546 102.20310666 -261.34216049 99.62666094 -259.54199219 97.01855469 C-246.98955266 78.9625833 -231.45375839 62.37885934 -214 49 C-212.85781697 48.0940726 -211.71590671 47.18780123 -210.57421875 46.28125 C-181.00546019 23.13090597 -146.56345045 7.3169812 -110 -1 C-108.63512451 -1.31759277 -108.63512451 -1.31759277 -107.24267578 -1.64160156 C-73.361214 -9.09469635 -33.69170667 -8.04672637 0 0 Z " fill="#F18361" transform="translate(307,5)"/>
<path d="M0 0 C0.98822754 0.23525391 1.97645508 0.47050781 2.99462891 0.71289062 C9.08695268 2.21860197 15.05437072 3.99541795 21 6 C22.21236328 6.40605469 22.21236328 6.40605469 23.44921875 6.8203125 C38.39453701 11.90504717 52.72115583 18.18044031 66.2421875 26.359375 C68.94980245 27.97013744 71.70369224 29.42506264 74.5 30.875 C80.81530617 34.2874493 86.35774191 38.58736505 92 43 C92.75925781 43.57621094 93.51851563 44.15242188 94.30078125 44.74609375 C110.8296608 57.34672039 126.36898522 71.42739196 139 88 C139.96344219 89.23445265 140.92699134 90.46882181 141.890625 91.703125 C148.21020839 99.88270281 153.8143383 108.26069863 158.95361328 117.22460938 C160.08769747 119.14879514 161.28420925 121.0251471 162.48828125 122.90625 C175.61414987 143.81533481 183.91456615 168.98828302 189 193 C189.21027832 193.98162109 189.42055664 194.96324219 189.63720703 195.97460938 C199.51466964 244.68152713 194.97122823 302.51205362 172 347 C167.48578633 345.58124713 165.28031558 343.341674 162 340 C128.40568972 309.38296325 86.08412486 288.54919067 42.38330078 276.80126953 C41.63290527 276.59743652 40.88250977 276.39360352 40.109375 276.18359375 C39.43874023 276.00368896 38.76810547 275.82378418 38.07714844 275.63842773 C36 275 36 275 33.71264648 274.01806641 C30.36576593 272.76196958 26.99663216 272.13251824 23.48828125 271.52734375 C22.76612427 271.39945969 22.04396729 271.27157562 21.29992676 271.13981628 C18.97202175 270.73148996 16.64254515 270.33341938 14.3125 269.9375 C13.52531586 269.80204773 12.73813171 269.66659546 11.92709351 269.52703857 C0.58327883 267.58649467 -10.47240739 266.21151546 -22 266 C-22 259.07 -22 252.14 -22 245 C-19.65625 244.18619792 -17.3125 243.37239583 -14.96875 242.55859375 C-1.66081246 235.57192654 11.77103374 219.86644386 17 206 C17.34804688 205.07703125 17.69609375 204.1540625 18.0546875 203.203125 C18.7012629 201.42880181 19.33330786 199.64907678 19.94677734 197.86303711 C20.95225765 195.12978083 22.10708411 192.55354328 23.359375 189.92578125 C26.08259637 183.99777196 28.17926417 177.95086851 30.1875 171.75 C30.52974609 170.71359375 30.87199219 169.6771875 31.22460938 168.609375 C32.16560145 165.7443739 33.08835256 162.87445566 34 160 C34.22002686 159.31719971 34.44005371 158.63439941 34.66674805 157.9309082 C37.03733707 150.21718806 37.33748911 142.03850963 34.0625 134.5625 C31.15576339 129.48396872 27.21240317 126.53345047 22 124 C20.99710937 123.77183594 19.99421875 123.54367188 18.9609375 123.30859375 C14.80978042 121.47397947 13.77590034 118.52323559 12.0625 114.5625 C11.37939728 113.09950126 10.69186603 111.63856242 10 110.1796875 C9.66355469 109.46393555 9.32710938 108.74818359 8.98046875 108.01074219 C1.71962426 93.12022546 -9.80583657 78.93534016 -25.59399414 72.81298828 C-35.59797678 69.43264712 -46.12648366 69.56664076 -56.5625 69.5625 C-57.39372375 69.55943848 -58.22494751 69.55637695 -59.08135986 69.55322266 C-74.96626358 69.53815266 -90.52392095 71.09441043 -106.25219727 73.22094727 C-107.10524948 73.33579971 -107.9583017 73.45065216 -108.83720398 73.56898499 C-110.41672375 73.78487974 -111.99538588 74.00720734 -113.5728302 74.23777771 C-126.85578441 76.0949186 -126.85578441 76.0949186 -131.9375 73.5 C-136.23915553 71.39306668 -140.2813174 71.55868436 -145 72 C-145.99 72.495 -145.99 72.495 -147 73 C-147.38421474 78.63273303 -146.27890915 82.52872569 -143.6875 87.4375 C-143.33429688 88.12416748 -142.98109375 88.81083496 -142.6171875 89.51831055 C-137.83229503 98.55061723 -132.03462758 107.30049884 -125.4140625 115.09765625 C-124.65867188 116.01417969 -123.90328125 116.93070312 -123.125 117.875 C-122.44695312 118.63554688 -121.76890625 119.39609375 -121.0703125 120.1796875 C-119.57570707 124.11802735 -120.73831902 126.4021203 -122.09667969 130.28417969 C-122.98867269 132.96594459 -123.54668893 135.54332023 -124.03515625 138.32421875 C-126.69264658 152.55045067 -126.69264658 152.55045067 -130.40625 156.66796875 C-133.0625 158.375 -133.0625 158.375 -135.69140625 159.7421875 C-140.25397071 162.22805172 -141.444377 166.365695 -143.06640625 171.13671875 C-145.48188665 181.13215858 -145.79801259 193.05337983 -140.484375 202.08984375 C-139.03428328 204.09860653 -139.03428328 204.09860653 -136.91796875 205.72265625 C-134.12216352 209.04231907 -134.05314969 212.28163601 -133.5625 216.5 C-131.89976472 228.17898697 -127.973363 237.46579748 -121 247 C-120.443125 247.886875 -119.88625 248.77375 -119.3125 249.6875 C-113.90797639 255.09202361 -107.43085258 257.76152457 -100 259 C-100.33 264.61 -100.66 270.22 -101 276 C-102.69382813 276.15855469 -104.38765625 276.31710937 -106.1328125 276.48046875 C-120.23388954 277.87845577 -133.77151794 279.99590993 -147.51367188 283.42871094 C-150.11336912 284.02604907 -152.71335167 284.48422984 -155.34375 284.92578125 C-176.97408959 288.74412859 -200.32728785 296.69125511 -218 310 C-218.73734375 310.54011719 -219.4746875 311.08023437 -220.234375 311.63671875 C-232.76616357 321.08129663 -244.10895158 331.80114924 -255.13598633 342.93017578 C-257.21823614 345.03101047 -259.30870815 347.12340418 -261.40039062 349.21484375 C-262.74006114 350.55941994 -264.07927169 351.90445461 -265.41796875 353.25 C-266.34599556 354.17969604 -266.34599556 354.17969604 -267.29277039 355.12817383 C-269.62613342 357.48741614 -271.79591522 359.71328126 -273.72387695 362.421875 C-274.14499756 362.94265625 -274.56611816 363.4634375 -275 364 C-275.99 364 -276.98 364 -278 364 C-288.92386096 342.20044629 -297.93527576 319.9139331 -303 296 C-303.31541748 294.52756836 -303.31541748 294.52756836 -303.63720703 293.02539062 C-314.49794501 239.46982756 -306.63017745 180.22469371 -281.04736328 131.98876953 C-279.93521575 129.87698544 -278.85499924 127.75066828 -277.77734375 125.62109375 C-274.01359187 118.24987315 -270.12765911 111.31289467 -265.078125 104.72265625 C-263.15502546 102.20310666 -261.34216049 99.62666094 -259.54199219 97.01855469 C-246.98955266 78.9625833 -231.45375839 62.37885934 -214 49 C-212.85781697 48.0940726 -211.71590671 47.18780123 -210.57421875 46.28125 C-181.00546019 23.13090597 -146.56345045 7.3169812 -110 -1 C-108.63512451 -1.31759277 -108.63512451 -1.31759277 -107.24267578 -1.64160156 C-73.361214 -9.09469635 -33.69170667 -8.04672637 0 0 Z " fill="#E7E0EE" transform="translate(307,5)"/>
<path d="M0 0 C23.58686495 -1.83793753 49.03060149 3.68725462 71 12 C74.64591223 13.08294423 78.320433 14.03883106 82 15 C88.22213559 16.66247685 93.9636528 18.75437814 99.7890625 21.50390625 C102.16899375 22.61280366 104.54969454 23.67875384 106.9609375 24.71484375 C132.3749282 35.66642791 155.63742656 49.35894597 177 67 C177.55574707 67.4542334 178.11149414 67.9084668 178.68408203 68.37646484 C182.15513681 71.21350961 185.61496974 74.06036846 189 77 C189.79148437 77.63035156 190.58296875 78.26070313 191.3984375 78.91015625 C193 81 193 81 192.76635742 83.8059082 C191.99606866 87.0163854 190.97098957 89.33764618 189.33984375 92.1953125 C188.7977124 93.15236084 188.25558105 94.10940918 187.69702148 95.09545898 C187.11637939 96.09520752 186.5357373 97.09495605 185.9375 98.125 C185.34332275 99.15890869 184.74914551 100.19281738 184.13696289 101.25805664 C180.0180358 108.37266902 175.81791869 115.33250579 171 122 C170.55301758 122.6192334 170.10603516 123.2384668 169.64550781 123.87646484 C163.5076514 132.33473039 157.13590804 140.35344899 150 148 C148.96166016 149.19109375 148.96166016 149.19109375 147.90234375 150.40625 C115.3808781 187.70854817 64.63029853 216.3671275 16 225 C14.33374744 225.03715086 12.66600443 225.046979 11 225 C9.97073647 217.09092235 9.61649515 209.16936396 9.24172974 201.20935059 C8.64903018 188.72190701 7.8996885 176.28155975 6.75259399 163.83233643 C4.28611457 136.8139134 3.62873448 109.66148492 2.60551453 82.55897903 C2.13215228 70.03339633 1.57181035 57.51419293 0.94381714 44.99533081 C0.19141135 29.98166165 -0.28283652 15.03747513 0 0 Z " fill="#40507F" transform="translate(285,271)"/>
<path d="M0 0 C-6.26368149 14.19115338 -21.12999393 21.75247662 -34.7890625 27.08984375 C-50.87005185 33.09190316 -50.87005185 33.09190316 -59 33 C-59.07516846 34.17357056 -59.07516846 34.17357056 -59.15185547 35.37084961 C-59.38303163 38.89379607 -59.62881411 42.415572 -59.875 45.9375 C-59.95363281 47.16919922 -60.03226563 48.40089844 -60.11328125 49.66992188 C-60.19707031 50.83974609 -60.28085938 52.00957031 -60.3671875 53.21484375 C-60.44050293 54.29886475 -60.51381836 55.38288574 -60.58935547 56.49975586 C-60.72486816 57.32483643 -60.86038086 58.14991699 -61 59 C-61.99 59.495 -61.99 59.495 -63 60 C-62.97172119 61.06081787 -62.94344238 62.12163574 -62.91430664 63.21459961 C-62.69765751 75.18580906 -63.82744307 86.71384938 -65.4375 98.5625 C-65.90223034 102.04199456 -66.35929765 105.52238513 -66.80859375 109.00390625 C-66.91819427 109.84969742 -67.0277948 110.69548859 -67.14071655 111.56690979 C-67.91137735 117.73335043 -68.33813641 123.87262242 -68.63658142 130.0774231 C-69.01999714 137.49513834 -70.25583952 144.70171699 -71.5390625 152.00585938 C-72.56542984 158.1755526 -73.16832149 164.22229968 -73.4375 170.4609375 C-73.90812681 180.97394297 -75.44498677 191.28880534 -77 201.6875 C-77.5486836 205.37791239 -78.09137632 209.06909754 -78.625 212.76171875 C-78.81594238 214.08234818 -78.81594238 214.08234818 -79.01074219 215.42965698 C-79.93107209 222.00651521 -80.48087252 228.54300231 -80.7890625 235.17504883 C-81 238 -81 238 -82 241 C-88.69727399 240.48275818 -94.39553996 239.12145923 -100.6875 236.8125 C-101.56108154 236.49788818 -102.43466309 236.18327637 -103.3347168 235.85913086 C-116.10007725 231.2068401 -128.13478956 225.59511276 -140 219 C-140.99515625 218.45730469 -141.9903125 217.91460937 -143.015625 217.35546875 C-151.42566503 212.63343808 -159.21962738 207.0675568 -167.02197266 201.41699219 C-168.35931057 200.45896833 -169.7084384 199.51722474 -171.06787109 198.59082031 C-172.74500883 197.44071079 -174.37745428 196.22592344 -176 195 C-176 194.34 -176 193.68 -176 193 C-176.82564453 192.65195312 -176.82564453 192.65195312 -177.66796875 192.296875 C-180.63314832 190.64789742 -182.83313575 188.56454088 -185.3125 186.25 C-188.40002989 183.38271528 -191.49204063 180.54933399 -194.75 177.875 C-198.59352803 174.60256222 -201.75234339 170.85142838 -205 167 C-205.81339844 166.07445312 -206.62679687 165.14890625 -207.46484375 164.1953125 C-218.91317137 151.09210708 -231.92495281 135.48082109 -238 119 C-237.33500488 118.33645508 -236.67000977 117.67291016 -235.98486328 116.98925781 C-233.10696341 114.11148403 -230.24325854 111.21976582 -227.37936401 108.32806396 C-224.34778806 105.26951892 -221.31073733 102.21643399 -218.2734375 99.16357422 C-216.68339609 97.56349794 -215.09515726 95.96162824 -213.50878906 94.35791016 C-205.00981044 85.7686675 -196.62670293 77.33611147 -187 70 C-186.34451172 69.48002441 -185.68902344 68.96004883 -185.01367188 68.42431641 C-164.16296773 51.94098948 -137.49248282 42.21611449 -111.4375 37.5625 C-106.33796412 36.64531306 -101.29644075 35.61997961 -96.25 34.4375 C-85.0980761 31.99921974 -73.41989151 30.80019032 -62 31 C-62.02320313 30.41992188 -62.04640625 29.83984375 -62.0703125 29.2421875 C-62.08835938 28.46101563 -62.10640625 27.67984375 -62.125 26.875 C-62.14820313 26.10929687 -62.17140625 25.34359375 -62.1953125 24.5546875 C-61.95990353 21.47553823 -61.06309744 18.88794187 -60 16 C-58.71867188 15.97421875 -57.43734375 15.9484375 -56.1171875 15.921875 C-45.37048236 15.60720514 -36.22225038 14.46024496 -26 11 C-24.33362989 10.58214889 -22.66698352 10.16539719 -21 9.75 C-15.77963023 8.20999092 -11.27687815 5.48885749 -6.64453125 2.69238281 C-2.17813665 0 -2.17813665 0 0 0 Z " fill="#40507F" transform="translate(268,250)"/>
<path d="M0 0 C0.66 0 1.32 0 2 0 C2.42946986 8.4824538 2.85232925 16.96522899 3.27067184 25.44823837 C3.34018008 26.85685713 3.40981341 28.26546972 3.4795723 29.67407608 C4.25330684 45.30299634 5.00368442 60.92977886 5.50390625 76.5703125 C5.54044815 77.71141983 5.57699005 78.85252716 5.61463928 80.0282135 C5.68670685 82.29351353 5.75863342 84.55881805 5.83041382 86.8241272 C6.50547229 108.0264267 7.8125696 129.09771675 9.6003418 150.234375 C11.01886272 167.15395408 11.78342654 184.02325417 12 201 C9.52161318 201.4835135 7.04240222 201.96187201 4.5625 202.4375 C3.87478516 202.57220703 3.18707031 202.70691406 2.47851562 202.84570312 C-5.68865909 204.40316435 -13.73607624 205.15766835 -22.046875 205.23828125 C-23.30908875 205.25283607 -23.30908875 205.25283607 -24.59680176 205.26768494 C-27.31458363 205.29253813 -30.03211588 205.30520896 -32.75 205.3125 C-33.67985718 205.31511841 -34.60971436 205.31773682 -35.56774902 205.32043457 C-57.01446492 205.32688416 -77.41709671 203.26636764 -98 197 C-97.54358645 183.30857718 -96.05064577 169.97489098 -94 156.4375 C-92.32420591 145.35306619 -90.82147335 134.40904489 -90.33653259 123.20227051 C-90.0471628 116.85339618 -89.163279 110.69640346 -88.0625 104.4375 C-86.49634922 94.92982222 -85.44722472 85.51408507 -84.79370117 75.90380859 C-84.20345985 67.63268921 -83.21910449 59.44841896 -82.15515137 51.22851562 C-80.58799556 39.11190879 -79.38026683 27.23973009 -80 15 C-76.05086665 13.68362222 -72.96737432 14.648402 -69 15.4375 C-47.87726384 19.27545928 -25.37624272 17.99455777 -6.953125 6.01953125 C-4.50392487 4.12803115 -2.18762652 2.18762652 0 0 Z " fill="#A27A8F" transform="translate(284,295)"/>
<path d="M0 0 C8.51113969 -0.73831573 13.61040126 2.31528796 20.0078125 7.4921875 C21.15236339 8.45891268 22.29306125 9.43021973 23.4296875 10.40625 C23.97044922 10.86032227 24.51121094 11.31439453 25.06835938 11.78222656 C45.39410372 28.98571764 60.90375688 54.49537374 63.4296875 81.40625 C63.62379172 86.40750499 63.55270637 91.40348257 63.4296875 96.40625 C62.60984375 96.74398437 61.79 97.08171875 60.9453125 97.4296875 C59.86765625 97.87570313 58.79 98.32171875 57.6796875 98.78125 C56.61234375 99.22210938 55.545 99.66296875 54.4453125 100.1171875 C51.55193929 101.28566812 51.55193929 101.28566812 49.43359375 102.546875 C44.4330146 104.69137288 37.46461159 104.28771692 32.3046875 102.7890625 C30.46568033 101.8269893 29.0106047 100.75080458 27.4296875 99.40625 C26.82125 98.92800781 26.2128125 98.44976562 25.5859375 97.95703125 C19.95245906 92.98302747 16.52844454 86.86024404 13.01831055 80.30981445 C10.72130235 76.12955071 9.04981837 73.2431695 4.4296875 71.40625 C1.31452003 70.83676948 1.31452003 70.83676948 -1.8828125 70.71875 C-2.95144531 70.65300781 -4.02007812 70.58726562 -5.12109375 70.51953125 C-5.92933594 70.48214844 -6.73757812 70.44476563 -7.5703125 70.40625 C-7.6130335 68.74013095 -7.61095082 67.07242115 -7.5703125 65.40625 C-6.5703125 64.40625 -6.5703125 64.40625 -4.06640625 64.30859375 C-3.05707031 64.32019531 -2.04773438 64.33179688 -1.0078125 64.34375 C0.00410156 64.35277344 1.01601562 64.36179688 2.05859375 64.37109375 C2.84105469 64.38269531 3.62351562 64.39429688 4.4296875 64.40625 C2.93176734 57.91526266 0.48333338 51.95568989 -2.3828125 45.96875 C-2.86137695 44.92170898 -2.86137695 44.92170898 -3.34960938 43.85351562 C-5.01196007 40.48618986 -6.20707102 38.66335283 -9.32421875 36.45703125 C-13.17415314 35.21078293 -16.69038887 34.95069899 -20.6953125 35.03125 C-21.43797363 35.04430176 -22.18063477 35.05735352 -22.94580078 35.07080078 C-32.62375621 35.21663795 -32.62375621 35.21663795 -41.5703125 38.40625 C-43.00767807 40.94660909 -43.58752271 43.05777735 -44.04296875 45.93359375 C-44.6436952 48.75033331 -45.71527904 50.2395307 -47.5703125 52.40625 C-56.76360529 41.72515379 -64.71521442 30.43443962 -71.1953125 17.90625 C-71.70976929 16.93715698 -71.70976929 16.93715698 -72.23461914 15.94848633 C-74.3797554 11.6319514 -75.17608285 8.20490142 -74.5703125 3.40625 C-70.32457921 0.57576114 -66.55905858 0.86501811 -61.5703125 1.40625 C-59.56218324 2.38982352 -57.56176641 3.38933736 -55.5703125 4.40625 C-48.64257327 4.72641101 -42.04704731 3.92585119 -35.1953125 2.96875 C-25.32582636 1.66491775 -15.55213992 0.78748282 -5.60253906 0.5 C-3.72959556 0.41359799 -1.86291444 0.21197276 0 0 Z " fill="#030201" transform="translate(233.5703125,74.59375)"/>
<path d="M0 0 C15.71792297 -0.55420688 27.10351065 0.19005448 40 10 C40.64324219 10.46664062 41.28648437 10.93328125 41.94921875 11.4140625 C54.02304412 20.96536452 64.17232949 37.51698847 69 52 C70.86947013 52.80791175 70.86947013 52.80791175 73.125 53.3125 C78.96741577 55.12374177 82.85592986 57.86001562 86.3203125 62.93359375 C91.45129153 72.71115868 89.39485902 82.78912784 86.375 92.875 C82.70568844 104.57671206 78.08762444 115.84636181 73 127 C72.67 127 72.34 127 72 127 C71.90203125 126.16597656 71.8040625 125.33195312 71.703125 124.47265625 C70.43275349 114.91201552 68.89708409 106.28177143 61 100 C57.13066592 97.72164959 53.39294837 95.97838494 49 95 C48.87882812 93.98421875 48.75765625 92.9684375 48.6328125 91.921875 C45.12038068 62.84319703 36.85911848 37.36435665 16 16 C15.23429687 15.195625 14.46859375 14.39125 13.6796875 13.5625 C10.28358417 10.06278674 6.96145208 6.83149721 2.9375 4.0625 C1.968125 3.381875 0.99875 2.70125 0 2 C0 1.34 0 0.68 0 0 Z " fill="#030302" transform="translate(255,75)"/>
<path d="M0 0 C1.28361168 0.00212242 1.28361168 0.00212242 2.59315491 0.00428772 C5.30302556 0.00984635 8.01281093 0.022391 10.72265625 0.03515625 C12.56966026 0.0401766 14.41666557 0.04473857 16.26367188 0.04882812 C20.77086576 0.0598022 25.27799659 0.07703795 29.78515625 0.09765625 C29.78515625 0.42765625 29.78515625 0.75765625 29.78515625 1.09765625 C25.49515625 1.09765625 21.20515625 1.09765625 16.78515625 1.09765625 C16.78515625 1.75765625 16.78515625 2.41765625 16.78515625 3.09765625 C17.34976563 3.34515625 17.914375 3.59265625 18.49609375 3.84765625 C23.19599354 6.41415443 26.89968653 10.45852755 30.78515625 14.09765625 C31.61789062 14.85304688 32.450625 15.6084375 33.30859375 16.38671875 C50.63602738 32.73026025 61.8666228 56.57357335 64.78515625 80.09765625 C65.05199219 81.54978516 65.05199219 81.54978516 65.32421875 83.03125 C65.80494747 86.22931818 65.88356138 89.24119441 65.84765625 92.47265625 C65.83863281 93.53226562 65.82960938 94.591875 65.8203125 95.68359375 C65.80871094 96.48023438 65.79710937 97.276875 65.78515625 98.09765625 C66.54570312 98.36578125 67.30625 98.63390625 68.08984375 98.91015625 C72.87492267 101.01836493 75.65585945 104.6578695 77.83203125 109.359375 C81.83900476 121.09678325 80.01340275 131.08368451 74.78515625 142.09765625 C72.4145243 146.81146109 69.46386462 149.57835174 64.78515625 152.09765625 C62.83710411 152.54475018 60.88858234 152.99053404 58.93359375 153.40625 C55.53294941 154.50063918 52.84763089 156.49906834 49.9609375 158.5625 C45.79368293 161.50277118 41.81955903 163.60913947 36.97265625 165.22265625 C35.50892578 165.72152344 35.50892578 165.72152344 34.015625 166.23046875 C26.11558427 168.35115683 17.98403384 168.37232536 9.85546875 168.61523438 C9.00210938 168.64939453 8.14875 168.68355469 7.26953125 168.71875 C6.50350586 168.74380615 5.73748047 168.7688623 4.94824219 168.79467773 C2.54322439 169.13154309 0.91735925 169.96721148 -1.21484375 171.09765625 C-8.11933104 171.92319277 -14.00664605 171.2017551 -20.21484375 168.09765625 C-22.5475236 165.91076889 -23.09214213 164.71116435 -23.71484375 161.59765625 C-23.21484375 159.09765625 -23.21484375 159.09765625 -21.1484375 156.96875 C-17.4515343 154.61080508 -15.13400454 154.59434566 -10.77734375 154.66015625 C-9.49988281 154.66144531 -8.22242188 154.66273438 -6.90625 154.6640625 C-2.0674117 155.23243398 1.33104549 156.64354549 4.78515625 160.09765625 C15.95649999 161.59758845 28.71031188 161.39208977 38.78515625 156.09765625 C40.16960937 155.48470703 40.16960937 155.48470703 41.58203125 154.859375 C46.47512058 152.78814501 46.47512058 152.78814501 50.171875 149.15625 C51.13112697 146.80056694 51.13112697 146.80056694 49.03515625 143.66015625 C48.6690625 143.10457031 48.30296875 142.54898438 47.92578125 141.9765625 C43.68604676 134.9926163 43.83739389 127.01538127 44.78515625 119.09765625 C47.05688561 110.43973491 51.28091668 103.10048263 58.78515625 98.09765625 C58.92759139 95.58646279 58.88222 93.3956404 58.66015625 90.91015625 C58.60448486 90.19762695 58.54881348 89.48509766 58.49145508 88.75097656 C56.53781565 66.54272907 48.83884011 43.93224468 33.78515625 27.09765625 C33.14578125 26.31777344 32.50640625 25.53789063 31.84765625 24.734375 C26.12079639 17.96531087 19.55050651 12.49785469 12.40527344 7.296875 C10.90536642 6.18663641 9.46846936 4.9926132 8.0390625 3.79296875 C3.32651865 1.3376938 -0.86585754 1.66361338 -6.08984375 1.84765625 C-7.064375 1.86570312 -8.03890625 1.88375 -9.04296875 1.90234375 C-11.43462182 1.94923891 -13.82420972 2.01484718 -16.21484375 2.09765625 C-16.21484375 1.76765625 -16.21484375 1.43765625 -16.21484375 1.09765625 C-10.76168747 0.17657959 -5.52411955 -0.03490007 0 0 Z " fill="#F1AE67" transform="translate(238.21484375,73.90234375)"/>
<path d="M0 0 C-6.26368149 14.19115338 -21.12999393 21.75247662 -34.7890625 27.08984375 C-52.08621926 33.5458248 -52.08621926 33.5458248 -59 33 C-59 32.01 -59 31.02 -59 30 C-59.66 30 -60.32 30 -61 30 C-61.02705729 28.22925083 -61.04642195 26.45838289 -61.0625 24.6875 C-61.07410156 23.70136719 -61.08570313 22.71523438 -61.09765625 21.69921875 C-61 19 -61 19 -60 16 C-58.71867188 15.97421875 -57.43734375 15.9484375 -56.1171875 15.921875 C-45.37048236 15.60720514 -36.22225038 14.46024496 -26 11 C-24.33362989 10.58214889 -22.66698352 10.16539719 -21 9.75 C-15.77963023 8.20999092 -11.27687815 5.48885749 -6.64453125 2.69238281 C-2.17813665 0 -2.17813665 0 0 0 Z " fill="#090504" transform="translate(268,250)"/>
<path d="M0 0 C6.60340916 0.28099613 10.94081885 2.81512394 16 7 C22.03209092 14.14326556 24.20636123 23.78253158 24 33 C23.42788875 35.92165551 22.31743306 38.34109312 21 41 C20.58492188 41.95003906 20.16984375 42.90007812 19.7421875 43.87890625 C16.51276608 50.92892733 12.80854843 55.89789665 7 61 C6.34 61.66 5.68 62.32 5 63 C-0.28509334 65.35441853 -5.21179205 65.23587606 -10.875 65.125 C-12.19371094 65.11146484 -12.19371094 65.11146484 -13.5390625 65.09765625 C-15.6928271 65.07424577 -17.84645014 65.0383801 -20 65 C-7.84897555 55.81130205 -7.84897555 55.81130205 0 54 C3.65561838 52.99684496 3.65561838 52.99684496 5.9765625 50.2734375 C6.31429688 49.52320313 6.65203125 48.77296875 7 48 C7.41378906 47.1234375 7.82757813 46.246875 8.25390625 45.34375 C8.90166016 43.93609375 8.90166016 43.93609375 9.5625 42.5 C10.21412109 41.09234375 10.21412109 41.09234375 10.87890625 39.65625 C14.40599662 31.29938082 13.94268028 21.77294764 11.05078125 13.26171875 C8.61888214 8.02725934 5.26246498 4.36413114 0 2 C0 1.34 0 0.68 0 0 Z " fill="#EE8260" transform="translate(304,170)"/>
<path d="M0 0 C0.66 0 1.32 0 2 0 C2.40625 3.1796875 2.40625 3.1796875 2 7 C-0.20616822 9.18714953 -1.9069351 10.5433712 -4.5 12.125 C-5.16837891 12.55095459 -5.83675781 12.97690918 -6.52539062 13.41577148 C-27.50328694 26.16106314 -54.7861941 25.32097926 -78 20 C-78.66 19.67 -79.32 19.34 -80 19 C-79.67 17.35 -79.34 15.7 -79 14 C-77.77667969 14.2165625 -76.55335938 14.433125 -75.29296875 14.65625 C-51.92805539 18.59678438 -27.61838888 19.45195277 -6.953125 6.01953125 C-4.50392487 4.12803115 -2.18762652 2.18762652 0 0 Z " fill="#95B0E2" transform="translate(284,295)"/>
<path d="M0 0 C-0.11627287 1.97969854 -0.2435368 3.95875213 -0.375 5.9375 C-0.44460937 7.03964844 -0.51421875 8.14179688 -0.5859375 9.27734375 C-0.89188461 12.02798142 -1.30601166 14.37813083 -1.96875 17.03125 C-3.46840293 23.45492257 -3.71526406 29.99664954 -4.125 36.5625 C-4.21136719 37.85736328 -4.29773438 39.15222656 -4.38671875 40.48632812 C-4.59733017 43.65720009 -4.80159213 46.82834501 -5 50 C-8.40031564 49.40245499 -8.8715569 49.16622048 -11.125 46.25 C-14.63293789 40.16957432 -15.33956971 35.66901784 -15.3125 28.75 C-15.32861328 27.94175781 -15.34472656 27.13351563 -15.36132812 26.30078125 C-15.36740473 18.70502443 -13.82902199 11.61135306 -9 5.5625 C-8.2575 4.60537109 -8.2575 4.60537109 -7.5 3.62890625 C-5.07703925 0.99772231 -3.60941921 0 0 0 Z " fill="#F39942" transform="translate(177,161)"/>
<path d="M0 0 C-1.56634544 3.75052713 -3.89881628 6.19835635 -6.75 9.0625 C-7.59046875 9.91972656 -8.4309375 10.77695313 -9.296875 11.66015625 C-14.76717563 16.39528642 -17.55583217 17 -25 17 C-25 12.38 -25 7.76 -25 3 C-23.67484375 2.95101562 -22.3496875 2.90203125 -20.984375 2.8515625 C-19.23956283 2.77651682 -17.49477218 2.70096976 -15.75 2.625 C-14.87730469 2.5940625 -14.00460937 2.563125 -13.10546875 2.53125 C-12.26113281 2.49257812 -11.41679687 2.45390625 -10.546875 2.4140625 C-9.77182617 2.3826416 -8.99677734 2.3512207 -8.19824219 2.31884766 C-5.17664349 1.8805749 -3.02361928 0 0 0 Z " fill="#0F0908" transform="translate(309,232)"/>
<path d="M0 0 C-0.56645266 3.7112416 -1.60542914 6.19685074 -3.5625 9.375 C-6.98751805 15.95776591 -6.78557822 22.76441113 -6 30 C-5.37022729 31.68095466 -4.71241057 33.35236733 -4 35 C-4.375 37.3125 -4.375 37.3125 -5 39 C-6.8125 38.9375 -6.8125 38.9375 -9 38 C-11.76863713 32.77856541 -12.51926726 28.48850419 -12.4375 22.625 C-12.43137695 21.87766602 -12.42525391 21.13033203 -12.41894531 20.36035156 C-12.25429735 14.54194581 -11.23387605 9.92833851 -8 5 C-7.01 3.4840625 -7.01 3.4840625 -6 1.9375 C-4 0 -4 0 0 0 Z " fill="#110906" transform="translate(207,174)"/>
<path d="M0 0 C0.33 0 0.66 0 1 0 C1.234375 2.29296875 1.234375 2.29296875 1 5 C-0.609375 6.73828125 -0.609375 6.73828125 -2.75 8.3125 C-6.94906737 11.72516959 -9.10250208 14.97444857 -11 20 C-11.53367187 21.36511719 -11.53367187 21.36511719 -12.078125 22.7578125 C-13.13712118 26.48224823 -13.38322883 29.97009405 -13.375 33.8125 C-13.37483887 34.51737549 -13.37467773 35.22225098 -13.37451172 35.94848633 C-13.2460704 41.82366268 -11.8937221 45.98568766 -9 51 C-8.32165413 52.66194738 -7.64800425 54.32598903 -7 56 C-7.99 56 -8.98 56 -10 56 C-17.1101108 48.44550727 -18.38636496 40.47454926 -18.2734375 30.48046875 C-17.53574238 21.09066371 -13.93335859 12.50002368 -7 6 C-3.625 4.6875 -3.625 4.6875 -1 4 C-0.03122943 1.96756452 -0.03122943 1.96756452 0 0 Z " fill="#F09540" transform="translate(297,167)"/>
<path d="M0 0 C1.32 0 2.64 0 4 0 C4.53446444 3.63435821 4.04395887 4.93268798 2 8.0625 C-1.96516358 12.40957736 -6.64385555 14.83170397 -12.5 15.25 C-13.325 15.1675 -14.15 15.085 -15 15 C-15.625 13.125 -15.625 13.125 -16 11 C-13.03959327 8.03959327 -9.55570948 7.90558735 -5.53125 7.07421875 C-2.76933964 6.2238784 -2.76933964 6.2238784 -1.71875 3.45703125 C-1.4815625 2.64621094 -1.244375 1.83539063 -1 1 C-0.67 0.67 -0.34 0.34 0 0 Z " fill="#190D0A" transform="translate(230,211)"/>
<path d="M0 0 C0.33 1.65 0.66 3.3 1 5 C-0.22976562 5.05607422 -0.22976562 5.05607422 -1.484375 5.11328125 C-2.56203125 5.17902344 -3.6396875 5.24476563 -4.75 5.3125 C-5.81734375 5.37050781 -6.8846875 5.42851562 -7.984375 5.48828125 C-11.21889908 6.03714479 -12.51634907 6.95985816 -15 9 C-17.25 8.6875 -17.25 8.6875 -19 8 C-18.43840585 4.74275395 -17.70956113 2.96209599 -15 1 C-10.06554023 -0.29235851 -5.0639465 -0.10127893 0 0 Z " fill="#0C0705" transform="translate(204,139)"/>
<path d="M0 0 C1.32 0 2.64 0 4 0 C4.05379226 2.95857409 4.09357093 5.91617721 4.125 8.875 C4.14175781 9.71675781 4.15851563 10.55851563 4.17578125 11.42578125 C4.18222656 12.23144531 4.18867188 13.03710938 4.1953125 13.8671875 C4.20578613 14.61081543 4.21625977 15.35444336 4.22705078 16.12060547 C4 18 4 18 2 20 C1.01 20 0.02 20 -1 20 C-1.02888514 16.85418577 -1.04675923 13.70840531 -1.0625 10.5625 C-1.07087891 9.66466797 -1.07925781 8.76683594 -1.08789062 7.84179688 C-1.09111328 6.98779297 -1.09433594 6.13378906 -1.09765625 5.25390625 C-1.10551147 4.06776733 -1.10551147 4.06776733 -1.11352539 2.85766602 C-1 1 -1 1 0 0 Z " fill="#180D09" transform="translate(189,159)"/>
<path d="M0 0 C1.32 0 2.64 0 4 0 C4 5.94 4 11.88 4 18 C2.02 18.99 2.02 18.99 0 20 C-1.5220959 18.4779041 -1.12959521 17.11789918 -1.1328125 15 C-1.13410156 14.195625 -1.13539063 13.39125 -1.13671875 12.5625 C-1.13285156 11.716875 -1.12898437 10.87125 -1.125 10 C-1.12886719 9.154375 -1.13273438 8.30875 -1.13671875 7.4375 C-1.13542969 6.633125 -1.13414062 5.82875 -1.1328125 5 C-1.13168457 4.2575 -1.13055664 3.515 -1.12939453 2.75 C-1 1 -1 1 0 0 Z " fill="#170C09" transform="translate(231,161)"/>
</svg>
